<svg width="1332" height="273" viewBox="0 0 1332 273" fill="none" xmlns="http://www.w3.org/2000/svg">
<path opacity="0.5" d="M135.2 269.6C131.467 269.6 127.867 268.533 124.4 266.4L8.4 189.6C2.8 185.867 2.26498e-06 180.4 2.26498e-06 173.2C2.26498e-06 166.267 2.93334 160.933 8.8 157.2L131.6 78.8C135.067 76.6667 138.533 75.6 142 75.6C147.333 75.6 151.867 77.4667 155.6 81.2C159.333 84.9333 161.2 89.6 161.2 95.2C161.2 98.1333 160.4 101.2 158.8 104.4C157.2 107.333 155.067 109.6 152.4 111.2L54.4 173.6L145.6 234.4C148.267 236.267 150.4 238.667 152 241.6C153.6 244.267 154.4 247.2 154.4 250.4C154.4 255.467 152.4 260 148.4 264C144.667 267.733 140.267 269.6 135.2 269.6ZM287.588 272.4C271.588 272.4 256.921 268.533 243.588 260.8C230.254 253.067 219.721 242.533 211.988 229.2C204.254 215.6 200.388 200.8 200.388 184.8C200.388 166.667 204.654 148.933 213.188 131.6C221.721 114.267 232.921 100.133 246.788 89.2C260.654 78.2667 275.321 72.8 290.787 72.8C304.921 72.8 316.254 75.0667 324.788 79.6C333.588 83.8667 342.121 90.8 350.388 100.4C354.388 104.667 356.388 109.333 356.388 114.4C356.388 119.467 354.521 123.867 350.788 127.6C347.054 131.067 342.521 132.8 337.188 132.8C333.721 132.8 330.921 132.267 328.788 131.2C326.921 130.133 324.654 128 321.988 124.8C317.454 119.733 312.921 115.867 308.388 113.2C304.121 110.533 298.388 109.2 291.188 109.2C282.921 109.2 274.521 112.8 265.988 120C257.721 127.2 250.921 136.667 245.588 148.4C240.521 159.867 237.987 171.733 237.987 184C237.987 194.667 240.254 204 244.788 212C249.588 219.733 255.721 225.733 263.188 230C270.654 234 278.521 236 286.788 236C297.454 236 306.121 234 312.788 230C319.721 226 325.854 220.533 331.188 213.6C336.254 206.933 341.988 203.6 348.388 203.6C353.454 203.6 357.854 205.467 361.588 209.2C365.321 212.667 367.188 216.667 367.188 221.2C367.188 226.533 365.721 231.067 362.788 234.8C355.054 245.2 344.521 254.133 331.188 261.6C317.854 268.8 303.321 272.4 287.588 272.4ZM470.678 272.4C455.478 272.4 441.478 268.267 428.678 260C416.145 251.733 406.278 240.533 399.078 226.4C391.878 212 388.278 196.4 388.278 179.6C388.278 160.667 392.545 143.067 401.078 126.8C409.611 110.267 421.078 97.2 435.478 87.6C449.878 77.7333 465.345 72.8 481.878 72.8C497.078 72.8 510.945 77.0667 523.478 85.6C536.278 94.1333 546.278 105.467 553.478 119.6C560.945 133.733 564.678 148.933 564.678 165.2C564.678 184.4 560.411 202.267 551.878 218.8C543.345 235.067 531.745 248.133 517.078 258C502.678 267.6 487.211 272.4 470.678 272.4ZM470.678 236.4C480.011 236.4 488.945 233.2 497.478 226.8C506.011 220.4 512.811 211.867 517.878 201.2C522.945 190.533 525.478 179.2 525.478 167.2C525.478 157.067 523.478 147.6 519.478 138.8C515.478 129.733 510.011 122.533 503.078 117.2C496.145 111.6 488.545 108.8 480.278 108.8C470.945 108.8 462.145 112.133 453.878 118.8C445.878 125.2 439.478 133.867 434.678 144.8C429.878 155.467 427.478 166.933 427.478 179.2C427.478 191.2 429.478 201.467 433.478 210C437.745 218.533 443.078 225.067 449.478 229.6C456.145 234.133 463.211 236.4 470.678 236.4ZM666.519 272C652.919 272 640.652 268.533 629.719 261.6C619.052 254.4 610.519 244 604.119 230.4C597.985 216.8 594.919 200.533 594.919 181.6C594.919 158.667 598.519 139.067 605.719 122.8C612.919 106.533 622.919 94.2667 635.719 86C648.519 77.4667 663.319 73.2 680.119 73.2C693.452 73.2 707.719 76.2667 722.919 82.4L724.919 20.4C725.185 15.0667 727.185 10.5333 730.919 6.79998C734.919 2.79998 739.585 0.799985 744.919 0.799985C749.985 0.799985 754.385 2.79998 758.119 6.79998C762.119 10.5333 763.985 15.3333 763.719 21.2L758.119 254C757.852 259.333 755.852 263.733 752.119 267.2C748.385 270.667 743.852 272.4 738.519 272.4C733.452 272.4 729.052 270.933 725.319 268C721.852 265.067 720.119 261.2 720.119 256.4V249.2C713.185 255.6 705.052 261.067 695.719 265.6C686.385 269.867 676.652 272 666.519 272ZM669.719 236C678.785 236 687.185 234.133 694.919 230.4C702.919 226.4 709.185 221.6 713.719 216C718.252 210.4 720.652 205.2 720.919 200.4L722.519 121.6C717.719 118.4 711.585 115.6 704.119 113.2C696.652 110.533 689.452 109.2 682.519 109.2C666.252 109.2 653.985 115.333 645.719 127.6C637.452 139.6 633.319 157.2 633.319 180.4C633.319 199.6 636.519 213.733 642.919 222.8C649.585 231.6 658.519 236 669.719 236ZM903.103 272.4C884.17 272.4 867.103 268.4 851.903 260.4C836.97 252.133 825.236 240.533 816.703 225.6C808.17 210.4 803.903 192.533 803.903 172C803.903 155.2 807.636 139.2 815.103 124C822.836 108.533 833.503 96.1333 847.103 86.8C860.97 77.4667 876.703 72.8 894.303 72.8C910.57 72.8 924.436 76.1333 935.903 82.8C947.636 89.2 956.436 96.9333 962.303 106C968.17 115.067 971.103 123.2 971.103 130.4C971.103 133.867 970.036 137.2 967.903 140.4C965.77 143.6 962.703 146.4 958.703 148.8L851.503 210.4C855.236 218.667 861.77 225.067 871.103 229.6C880.703 234.133 891.37 236.4 903.103 236.4C918.57 236.4 931.77 230.667 942.703 219.2C946.97 214.933 951.37 212.8 955.903 212.8C961.236 212.8 965.636 214.533 969.103 218C972.836 221.467 974.703 225.733 974.703 230.8C974.703 235.067 973.103 239.067 969.903 242.8C962.436 251.067 952.436 258.133 939.903 264C927.636 269.6 915.37 272.4 903.103 272.4ZM931.503 125.6C928.303 120 923.77 115.867 917.903 113.2C912.036 110.267 905.103 108.8 897.103 108.8C881.903 108.8 869.103 114 858.703 124.4C848.57 134.8 842.703 147.6 841.103 162.8C840.57 166.8 840.303 171.6 840.303 177.2L931.503 125.6ZM1032.79 272.4C1027.72 272.4 1023.19 270.533 1019.19 266.8C1015.19 263.067 1013.19 258.8 1013.19 254V92C1013.19 86.6667 1015.05 82.1333 1018.79 78.4C1022.79 74.6667 1027.45 72.8 1032.79 72.8C1038.12 72.8 1042.65 74.6667 1046.39 78.4C1050.39 82.1333 1052.39 86.6667 1052.39 92V104C1065.45 82.6667 1083.32 72 1105.99 72C1119.59 72 1129.32 75.7333 1135.19 83.2C1141.32 90.6667 1144.39 99.6 1144.39 110V122C1144.39 127.333 1142.52 131.867 1138.79 135.6C1135.32 139.067 1130.92 140.8 1125.59 140.8C1119.19 140.8 1114.39 138.933 1111.19 135.2C1108.25 131.467 1106.79 126.933 1106.79 121.6V116.4C1106.79 112.133 1103.85 110 1097.99 110C1093.19 110 1087.59 112.4 1081.19 117.2C1075.05 122 1069.99 127.067 1065.99 132.4C1060.39 139.333 1056.65 146.267 1054.79 153.2C1053.19 160.133 1052.39 168.4 1052.39 178L1051.99 254C1051.99 258.8 1049.99 263.067 1045.99 266.8C1041.99 270.533 1037.59 272.4 1032.79 272.4ZM1196.52 269.6C1191.45 269.6 1186.92 267.733 1182.92 264C1179.18 260 1177.32 255.467 1177.32 250.4C1177.32 243.733 1180.25 238.4 1186.12 234.4L1277.32 173.6L1179.32 111.2C1176.65 109.6 1174.52 107.333 1172.92 104.4C1171.32 101.2 1170.52 98.1333 1170.52 95.2C1170.52 89.6 1172.38 84.9333 1176.12 81.2C1179.85 77.4667 1184.38 75.6 1189.72 75.6C1193.18 75.6 1196.65 76.6667 1200.12 78.8L1322.92 157.2C1328.78 160.933 1331.72 166.267 1331.72 173.2C1331.72 180.4 1328.92 185.867 1323.32 189.6L1207.32 266.4C1203.85 268.533 1200.25 269.6 1196.52 269.6Z" fill="url(#paint0_linear_3_21)"/>
<defs>
<linearGradient id="paint0_linear_3_21" x1="666" y1="-90" x2="666" y2="370" gradientUnits="userSpaceOnUse">
<stop stop-color="white"/>
<stop offset="1" stop-opacity="0"/>
<stop offset="1" stop-color="#D02222" stop-opacity="0.28"/>
</linearGradient>
</defs>
</svg>
